#!OML:ASF H:\Terrain\Patient Classification 1\Walking\liu\liu.ASF
:FULLY-SPECIFIED
:DEGREES
453
root 11.867129 19.214581 30.407299 5.870689 1.273239 2.461162
lowerback -6.325165 -1.472548 -3.200329
upperback -1.362702 -1.803527 1.484989
thorax 2.274261 -0.920586 3.192200
lowerneck -23.334080 -4.461831 -12.902010
upperneck 26.651680 -5.214198 11.582120
head 13.240920 -2.066900 5.704787
rclavicle -0.000000 0.000000
rhumerus -49.190681 11.685190 -97.031219
rradius 37.836040
rwrist -14.570601
rhand -32.657898 -36.849342
rfingers 7.837522
rthumb -3.318777 -69.803581
lclavicle -0.000000 0.000000
lhumerus -27.113901 -14.311330 98.653610
lradius 23.003750
lwrist -4.554451
lhand -12.190530 -25.590841
lfingers 7.837522
lthumb 16.435320 6.794337
rfemur -22.266420 -2.730266 19.010090
rtibia 71.275597
rfoot -11.086790 -8.984053
rtoes -19.329639
lfemur -20.740610 3.936416 -31.213711
ltibia 28.819340
lfoot -14.099800 4.972660
ltoes 0.457860
454
root 11.875930 19.221510 30.534681 5.750910 1.450042 2.152755
lowerback -6.098444 -1.717694 -3.020039
upperback -1.369918 -2.151545 1.705781
thorax 2.167308 -1.092229 3.297250
lowerneck -23.345520 -4.205201 -12.853060
upperneck 26.584581 -4.889962 11.695860
head 13.173380 -1.901812 5.793040
rclavicle 0.000000 0.000000
rhumerus -49.303650 11.905849 -96.872818
rradius 38.128639
rwrist -14.960771
rhand -34.116940 -34.141800
rfingers 7.837522
rthumb -4.727844 -67.071838
lclavicle 0.000000 0.000000
lhumerus -26.223450 -14.609210 98.438560
lradius 23.253450
lwrist -4.512981
lhand -12.632070 -25.863970
lfingers 7.837522
lthumb 16.009949 6.552392
rfemur -23.352009 -2.422244 19.436892
rtibia 70.796989
rfoot -12.100660 -9.220728
rtoes -18.844210
lfemur -20.154530 3.876840 -30.832449
ltibia 28.776440
lfoot -14.350491 4.856434
ltoes 1.358038
455
root 11.885611 19.210730 30.656231 5.829670 1.535655 1.973290
lowerback -6.018573 -1.874631 -2.831378
upperback -1.493492 -2.375384 1.805650
thorax 2.008787 -1.199319 3.281366
lowerneck -23.194269 -3.852541 -12.303500
upperneck 26.784672 -4.441272 11.126390
head 13.131030 -1.725526 5.556111
rclavicle -0.000000 -0.000000
rhumerus -49.742992 11.892759 -96.741806
rradius 38.704929
rwrist -15.260630
rhand -34.687622 -32.596409
rfingers 7.837522
rthumb -5.278867 -65.514572
lclavicle -0.000000 -0.000000
lhumerus -25.460381 -15.198919 98.240891
lradius 23.522511
lwrist -4.276349
lhand -13.140710 -26.116089
lfingers 7.837522
lthumb 15.519900 6.334999
rfemur -24.750000 -2.049696 19.700340
rtibia 70.320473
rfoot -13.164801 -9.471539
rtoes -18.977310
lfemur -19.821230 3.946932 -30.668550
ltibia 29.111830
lfoot -14.983760 4.810542
ltoes 0.751081
456
root 11.892759 19.186420 30.778000 5.645321 1.668073 1.981309
lowerback -5.785307 -2.057275 -2.901811
upperback -1.408286 -2.621157 1.857779
thorax 1.989009 -1.323465 3.362073
lowerneck -24.331341 -4.115353 -11.967780
upperneck 27.643332 -4.785924 10.829346
head 13.724811 -1.867734 5.365140
rclavicle -0.000000 0.000000
rhumerus -49.861130 12.123760 -96.849609
rradius 39.090370
rwrist -15.954730
rhand -34.880119 -32.970192
rfingers 7.837522
rthumb -5.464690 -65.884064
lclavicle -0.000000 0.000000
lhumerus -24.487211 -16.183859 98.001534
lradius 23.846569
lwrist -3.586572
lhand -13.420330 -26.310680
lfingers 7.837522
lthumb 15.250401 6.159065
rfemur -25.770029 -1.727187 19.741261
rtibia 69.822830
rfoot -14.471710 -9.503758
rtoes -19.749069
lfemur -19.144070 4.015594 -30.676689
ltibia 29.329191
lfoot -15.733740 4.834302
ltoes 0.727362
457
root 11.898260 19.157270 30.895370 5.270782 1.876644 1.927167
lowerback -5.324044 -2.266088 -2.963004
upperback -1.277881 -2.908906 1.971574
thorax 1.894992 -1.468368 3.506283
lowerneck -23.597311 -3.747172 -12.168970
upperneck 26.936911 -4.404345 11.463760
head 13.269520 -1.645798 5.681269
rclavicle -0.000000 -0.000000
rhumerus -49.897652 12.304379 -96.783936
rradius 39.536968
rwrist -16.837811
rhand -34.441879 -33.627548
rfingers 7.837522
rthumb -5.041597 -66.550987
lclavicle -0.000000 -0.000000
lhumerus -23.626572 -17.437420 97.853363
lradius 24.299549
lwrist -2.464198
lhand -13.945580 -26.469740
lfingers 7.837522
lthumb 14.744180 6.033951
rfemur -26.581610 -1.501665 19.840590
rtibia 69.334541
rfoot -15.806340 -9.407849
rtoes -19.363190
lfemur -18.226231 3.957547 -30.563171
ltibia 29.253841
lfoot -16.176380 4.920872
ltoes 1.679590
458
root 11.906290 19.137360 31.017139 5.144249 2.013418 2.131613
lowerback -5.149408 -2.428558 -3.166493
upperback -1.270874 -3.119743 1.975270
thorax 1.830664 -1.573781 3.616261
lowerneck -23.816650 -3.381609 -11.382470
upperneck 27.434771 -3.923656 10.632611
head 13.408450 -1.460580 5.320920
rclavicle 0.000000 0.000000
rhumerus -50.138878 11.939290 -96.282005
rradius 40.197960
rwrist -17.005779
rhand -33.105049 -34.449471
rfingers 7.837522
rthumb -3.750670 -67.397217
lclavicle 0.000000 0.000000
lhumerus -23.018051 -18.118870 97.693314
lradius 24.836351
lwrist -1.673925
lhand -14.134450 -26.211130
lfingers 7.837522
lthumb 14.562020 6.304441
rfemur -27.667089 -1.401257 19.616959
rtibia 68.735809
rfoot -16.599770 -9.423382
rtoes -17.097630
lfemur -17.537411 3.950353 -30.764360
ltibia 29.142962
lfoot -16.401991 4.908255
ltoes 2.362118
459
root 11.921801 19.121740 31.162891 4.857996 2.238753 2.814427
lowerback -5.535486 -2.602413 -3.672812
upperback -0.732107 -3.307436 1.684617
thorax 2.627064 -1.691272 3.558973
lowerneck -24.224531 -3.546312 -11.792439
upperneck 27.164612 -4.205157 11.482350
head 13.448271 -1.505163 5.672370
rclavicle 0.000000 0.000000
rhumerus -49.670059 11.296121 -95.891624
rradius 40.487591
rwrist -16.735180
rhand -33.039711 -33.074249
rfingers 7.837522
rthumb -3.687530 -66.022987
lclavicle 0.000000 0.000000
lhumerus -21.614229 -18.429180 97.079178
lradius 25.323650
lwrist -1.382337
lhand -13.972751 -25.878050
lfingers 7.837522
lthumb 14.718000 6.627401
rfemur -28.362072 -1.588774 18.736410
rtibia 67.966690
rfoot -17.004791 -9.191842
rtoes -16.952761
lfemur -16.585911 4.014549 -31.516319
ltibia 29.176510
lfoot -16.960129 4.572909
ltoes 3.069836
460
root 11.927850 19.124710 31.298189 4.791039 2.744577 2.862365
lowerback -7.345063 -2.778215 -3.633839
upperback 0.812857 -3.478002 1.540077
thorax 5.251620 -1.839409 3.261786
lowerneck -25.389870 -3.815658 -11.644270
upperneck 26.249302 -4.491685 11.603789
head 13.360490 -1.567786 5.614840
rclavicle 0.000000 0.000000
rhumerus -47.314190 10.853986 -95.651154
rradius 40.353611
rwrist -17.340509
rhand -33.830280 -31.504770
rfingers 7.837522
rthumb -4.451040 -64.440201
lclavicle 0.000000 0.000000
lhumerus -18.154840 -19.539850 95.922752
lradius 25.637810
lwrist -0.569423
lhand -14.110910 -25.906321
lfingers 7.837522
lthumb 14.584789 6.607843
rfemur -29.198730 -1.660758 18.651051
rtibia 66.955238
rfoot -17.671721 -9.124764
rtoes -19.574280
lfemur -15.903140 3.743091 -31.526661
ltibia 29.084551
lfoot -17.454689 4.257671
ltoes 3.560634
461
root 11.926970 19.130211 31.414900 5.084354 3.160641 2.747382
lowerback -6.013381 -3.035637 -3.700202
upperback -0.544713 -3.872935 1.854072
thorax 3.147298 -1.986413 3.676706
lowerneck -24.000019 -3.443033 -11.478280
upperneck 26.987072 -3.968613 10.765194
head 13.280740 -1.464815 5.364480
rclavicle -0.000000 0.000000
rhumerus -49.656860 11.545270 -95.780190
rradius 40.863789
rwrist -18.687019
rhand -34.847450 -30.491671
rfingers 7.837522
rthumb -5.433153 -63.406311
lclavicle -0.000000 0.000000
lhumerus -19.531380 -19.523569 96.530724
lradius 26.149090
lwrist -0.103439
lhand -14.416710 -26.204420
lfingers 7.837522
lthumb 14.290100 6.328718
rfemur -30.476490 -1.437458 18.822430
rtibia 65.790451
rfoot -18.397720 -9.359185
rtoes -20.843130
lfemur -15.870360 3.384392 -31.335150
ltibia 29.046051
lfoot -17.687340 4.161762
ltoes 3.879733
462
root 11.937750 19.124710 31.543270 5.071638 3.315367 3.285084
lowerback -5.226947 -3.215784 -4.161663
upperback -1.136223 -4.114198 1.772738
thorax 2.140864 -2.082740 3.887026
lowerneck -23.506561 -3.412530 -11.844140
upperneck 27.363050 -3.957833 11.052031
head 13.341020 -1.473978 5.554824
rclavicle -0.000000 -0.000000
rhumerus -50.907448 11.654500 -95.824081
rradius 41.359009
rwrist -19.648312
rhand -36.045460 -28.352280
rfingers 7.837522
rthumb -6.589924 -61.237110
lclavicle -0.000000 -0.000000
lhumerus -19.810009 -19.839819 96.536438
lradius 26.620001
lwrist 0.599888
lhand -14.587650 -26.349730
lfingers 7.837522
lthumb 14.125210 6.193825
rfemur -31.378160 -1.303599 18.124699
rtibia 64.584305
rfoot -18.899761 -9.296562
rtoes -20.428211
lfemur -15.436080 3.347443 -31.903301
ltibia 29.179152
lfoot -18.191360 4.155965
ltoes 4.188195
